<svg width="29" height="29" viewBox="0 0 29 29" fill="none" xmlns="http://www.w3.org/2000/svg">
<rect x="0.5" y="0.503693" width="28" height="28" rx="14" fill="#3F5870"/>
<g clip-path="url(#clip0_1067_9257)">
<path d="M16.8337 14.1703C16.267 14.1703 15.8337 14.6037 15.8337 15.1703C15.8337 15.737 16.267 16.1703 16.8337 16.1703C17.4003 16.1703 17.8337 15.737 17.8337 15.1703C17.8337 14.6037 17.4003 14.1703 16.8337 14.1703ZM12.167 14.1703C11.6003 14.1703 11.167 14.6037 11.167 15.1703C11.167 15.737 11.6003 16.1703 12.167 16.1703C12.7337 16.1703 13.167 15.737 13.167 15.1703C13.167 14.6037 12.7337 14.1703 12.167 14.1703Z" fill="#FFFFFE"/>
<path d="M8.5 11.5037C8.5 11.137 8.8 10.837 9.16667 10.837H11.8333L10.8667 8.40369C10.7333 8.07036 10.9 7.67036 11.2333 7.53703C11.5667 7.40369 11.9667 7.57036 12.1 7.90369L13.2667 10.8037H15.7L16.8667 7.90369C17 7.57036 17.4 7.40369 17.7333 7.53703C18.0667 7.67036 18.2333 8.07036 18.1 8.40369L17.1667 10.837H19.8333C20.2 10.837 20.5 11.137 20.5 11.5037V20.837C20.5 21.2037 20.2 21.5037 19.8333 21.5037H9.16667C8.8 21.5037 8.5 21.2037 8.5 20.837V11.5037ZM9.83333 12.1704V20.1704H19.1667V12.1704H9.83333ZM22.5 17.837V14.5037C22.5 14.137 22.2 13.837 21.8333 13.837C21.4667 13.837 21.1667 14.137 21.1667 14.5037V17.837C21.1667 18.2037 21.4667 18.5037 21.8333 18.5037C22.2 18.5037 22.5 18.2037 22.5 17.837ZM7.16667 18.5037C7.53333 18.5037 7.83333 18.2037 7.83333 17.837V14.5037C7.83333 14.137 7.53333 13.837 7.16667 13.837C6.8 13.837 6.5 14.137 6.5 14.5037V17.837C6.5 18.2037 6.8 18.5037 7.16667 18.5037Z" fill="#FFFFFE"/>
</g>
<defs>
<clipPath id="clip0_1067_9257">
<rect width="16" height="16" fill="white" transform="translate(6.5 6.50369)"/>
</clipPath>
</defs>
</svg>
