<svg width="33" height="33" viewBox="0 0 33 33" fill="none" xmlns="http://www.w3.org/2000/svg">
<path id="Intercom Logo" d="M27.8413 24.7694C27.7005 24.9117 23.7418 28.2454 16.4842 28.2454C9.22667 28.2454 5.29438 24.9294 5.12725 24.7872C5.02191 24.6974 4.93514 24.5875 4.87193 24.4639C4.8087 24.3401 4.77027 24.205 4.75883 24.0663C4.74739 23.9276 4.76316 23.7879 4.80525 23.6553C4.84734 23.5227 4.9149 23.3999 5.00408 23.2937C5.1878 23.0789 5.44812 22.9462 5.72828 22.9245C6.00842 22.9029 6.28567 22.994 6.49958 23.1781C6.56116 23.2226 10.0975 26.1207 16.4754 26.1207C22.8533 26.1207 26.4161 23.2048 26.4513 23.1781C26.6676 22.9957 26.9458 22.9058 27.2266 22.9273C27.5076 22.9489 27.7691 23.0804 27.9556 23.2937C28.1351 23.5053 28.2247 23.78 28.2049 24.058C28.1851 24.336 28.0576 24.5948 27.8501 24.7783L27.8413 24.7694ZM10.0887 6.3674C10.1047 6.08121 10.232 5.81302 10.4431 5.62146C10.6541 5.42989 10.9315 5.33052 11.2148 5.34507C11.4774 5.36014 11.7252 5.47294 11.9104 5.66173C12.0956 5.8505 12.2051 6.10189 12.2177 6.3674V20.5912C12.2177 20.8765 12.1055 21.1501 11.9059 21.3518C11.7063 21.5535 11.4356 21.6669 11.1532 21.6669C10.8709 21.6669 10.6002 21.5535 10.4005 21.3518C10.2009 21.1501 10.0887 20.8765 10.0887 20.5912V6.3674ZM15.455 5.83401C15.455 5.54873 15.5672 5.27512 15.7667 5.0734C15.9664 4.87167 16.2371 4.75834 16.5194 4.75834C16.8017 4.75834 17.0725 4.87167 17.2722 5.0734C17.4717 5.27512 17.5839 5.54873 17.5839 5.83401V21.3024C17.5839 21.5877 17.4717 21.8613 17.2722 22.063C17.0725 22.2647 16.8017 22.3781 16.5194 22.3781C16.2371 22.3781 15.9664 22.2647 15.7667 22.063C15.5672 21.8613 15.455 21.5877 15.455 21.3024V5.83401ZM20.7333 6.3674C20.7333 6.08212 20.8454 5.80852 21.045 5.60679C21.2446 5.40506 21.5154 5.29173 21.7976 5.29173C22.08 5.29173 22.3507 5.40506 22.5504 5.60679C22.7499 5.80852 22.8621 6.08212 22.8621 6.3674V20.5912C22.8621 20.8765 22.7499 21.1501 22.5504 21.3518C22.3507 21.5535 22.08 21.6669 21.7976 21.6669C21.5154 21.6669 21.2446 21.5535 21.045 21.3518C20.8454 21.1501 20.7333 20.8765 20.7333 20.5912V6.3674ZM28.501 0.500093H4.50265C3.97974 0.496581 3.46128 0.597334 2.97695 0.796584C2.49263 0.995834 2.05195 1.28967 1.68015 1.66126C1.30835 2.03285 1.01274 2.47491 0.810226 2.96211C0.607717 3.44932 0.502293 3.9721 0.499991 4.50053V28.5032C0.502293 29.0316 0.607717 29.5544 0.810226 30.0416C1.01274 30.5288 1.30835 30.9708 1.68015 31.3424C2.05195 31.714 2.49263 32.0079 2.97695 32.2071C3.46128 32.4064 3.97974 32.5072 4.50265 32.5036H28.501C29.0232 32.5072 29.5409 32.4066 30.0247 32.2079C30.5084 32.0092 30.9487 31.7162 31.3204 31.3456C31.6921 30.9749 31.9879 30.534 32.1909 30.0478C32.394 29.5616 32.5002 29.0398 32.5037 28.5121V4.50053C32.5014 3.97285 32.3962 3.4508 32.1943 2.96418C31.9923 2.47756 31.6975 2.0359 31.3267 1.66442C30.9558 1.29294 30.5162 0.998923 30.0328 0.799148C29.5495 0.599372 29.032 0.497753 28.5098 0.500093" fill="#3F5870"/>
</svg>
